<svg width="30" height="33" viewBox="0 0 30 33" fill="none" xmlns="http://www.w3.org/2000/svg">
<mask id="mask0_637_2559" style="mask-type:alpha" maskUnits="userSpaceOnUse" x="0" y="0" width="30" height="33">
<path d="M12.0589 0.946147C13.8053 -0.0621262 15.9569 -0.0621275 17.7033 0.946145L26.94 6.27895C28.6864 7.28722 29.7622 9.15059 29.7622 11.1671V21.8327C29.7622 23.8493 28.6864 25.7127 26.94 26.7209L17.7033 32.0537C15.9569 33.062 13.8053 33.062 12.0589 32.0537L2.8222 26.7209C1.07582 25.7127 0 23.8493 0 21.8327V11.1671C0 9.15059 1.07582 7.28722 2.8222 6.27895L12.0589 0.946147Z" fill="#C4C4C4"/>
</mask>
<g mask="url(#mask0_637_2559)">
<path d="M14.8768 -0.964111L31.1887 8.45352L22.9338 12.8983L19.5241 11.0384L16.4243 11.3484L8.67486 8.55861L6.815 11.0384L5.88507 12.2783L4.02521 11.0384L-1.43499 8.45353L14.8768 -0.964111Z" fill="url(#paint0_linear_637_2559)"/>
<path d="M-0.12854 8.58702L6.19935 11.6556L9.91908 20.6449L9.91908 20.9549L11.159 22.5048L16.7386 26.8445L14.8806 34.5836L-0.12854 25.9181L-0.12854 8.58702Z" fill="url(#paint1_linear_637_2559)"/>
<path d="M19.8341 20.9543L23.8638 12.2749L29.886 8.58868L29.886 25.9197L14.8769 34.5852L14.5645 26.8438L19.8341 20.9543Z" fill="url(#paint2_linear_637_2559)"/>
<path d="M14.8762 6.08276C12.3114 6.08276 9.97398 7.05624 8.21311 8.65384L9.64267 20.9616C10.0336 21.142 12.2757 21.8916 12.7063 21.8916H15.8061C16.354 21.8916 20.1458 20.7238 20.1458 21.2716L19.8358 19.9696C19.8358 20.5175 19.3917 20.9616 18.8439 20.9616H10.9085C10.3606 20.9616 9.91655 20.5175 9.91655 19.9696V15.1676C9.91655 14.737 9.82311 14.3116 9.64267 13.9206L8.21311 8.65384C6.61551 10.4146 4.95691 13.4372 4.95691 16.002C4.95691 21.4804 9.39787 25.9213 14.8762 25.9213C20.3545 25.9213 24.7955 21.4804 24.7955 16.002C24.7955 10.5237 20.3545 6.08276 14.8762 6.08276Z" fill="url(#paint3_linear_637_2559)"/>
<path d="M13.0393 10.2229C13.2583 10.1384 13.4926 10.1053 13.7246 10.1259C13.9565 10.1466 14.18 10.2206 14.3781 10.3423C14.5761 10.464 14.7436 10.6302 14.8678 10.8283C14.9921 11.0264 15.0697 11.2512 15.095 11.4858C15.2751 13.1757 14.8956 14.8867 14.016 16.3504C13.1364 17.814 11.8066 18.9474 10.2352 19.5727L9.1231 16.6973C10.0618 16.3235 10.8568 15.6475 11.3846 14.7745C11.9124 13.9015 12.1433 12.8804 12.0415 11.8702C12.0044 11.5252 12.0821 11.1758 12.2624 10.8774C12.4427 10.579 12.7152 10.3486 13.0367 10.2229L13.0393 10.2229Z" fill="#9C5AFF"/>
<path d="M13.0266 10.2277C12.6467 10.3791 12.3394 10.6762 12.1723 11.0539C12.0052 11.4316 11.9919 11.8588 12.1354 12.2417L15.3855 20.9086C15.5291 21.2914 15.8178 21.5985 16.1879 21.7623C16.5581 21.926 16.9794 21.9331 17.3594 21.782C17.5475 21.7071 17.7199 21.5957 17.8665 21.4539C18.0131 21.3122 18.1312 21.143 18.214 20.9559C18.2967 20.7689 18.3426 20.5677 18.3488 20.3639C18.3551 20.16 18.3217 19.9575 18.2505 19.7679L15.0005 11.1011C14.9294 10.9115 14.822 10.7384 14.6844 10.5919C14.5467 10.4453 14.3815 10.3282 14.1982 10.2471C14.0149 10.1659 13.817 10.1225 13.616 10.1192C13.415 10.1159 13.2147 10.1527 13.0266 10.2277Z" fill="#9C5AFF"/>
<path d="M17.3451 21.7841C17.1262 21.8687 16.8919 21.9019 16.66 21.8813C16.4281 21.8607 16.2046 21.7867 16.0065 21.6651C15.8085 21.5435 15.641 21.3774 15.5168 21.1793C15.3926 20.9812 15.3149 20.7564 15.2896 20.5219C15.1097 18.832 15.4893 17.121 16.3688 15.6573C17.2483 14.1935 18.5779 13.06 20.1492 12.4344L21.2613 15.3109C20.3227 15.6847 19.5276 16.3607 18.9998 17.2337C18.472 18.1067 18.2411 19.1277 18.343 20.138C18.3795 20.4831 18.3012 20.8324 18.1204 21.1306C17.9397 21.4288 17.6668 21.6588 17.3451 21.7841Z" fill="#9C5AFF"/>
</g>
<defs>
<linearGradient id="paint0_linear_637_2559" x1="14.5644" y1="0.499199" x2="14.2819" y2="11.8215" gradientUnits="userSpaceOnUse">
<stop stop-color="#4E00D3"/>
<stop offset="1" stop-color="#7A36F0"/>
</linearGradient>
<linearGradient id="paint1_linear_637_2559" x1="14.8787" y1="23.4347" x2="5.90309" y2="12.6731" gradientUnits="userSpaceOnUse">
<stop stop-color="#5508D8"/>
<stop offset="1" stop-color="#7935EF"/>
</linearGradient>
<linearGradient id="paint2_linear_637_2559" x1="14.8744" y1="24.674" x2="23.4474" y2="13.2149" gradientUnits="userSpaceOnUse">
<stop stop-color="#5205D6"/>
<stop offset="1" stop-color="#7A35F0"/>
</linearGradient>
<linearGradient id="paint3_linear_637_2559" x1="14.8762" y1="6.08276" x2="14.8762" y2="25.9213" gradientUnits="userSpaceOnUse">
<stop stop-color="#7935EF"/>
<stop offset="1" stop-color="#6117E0"/>
</linearGradient>
</defs>
</svg>
